<svg width="56" height="56" viewBox="0 0 56 56" fill="none" xmlns="http://www.w3.org/2000/svg">
<g clip-path="url(#clip0_266_710)">
<path d="M55.8962 13.2793C55.7034 12.5625 55.2332 11.9515 54.5898 11.581C53.946 11.2088 53.1805 11.1081 52.4624 11.3008C51.7452 11.494 51.1342 11.9638 50.7637 12.6072L50.2971 13.4191C49.8538 13.1644 49.2874 13.3143 49.0282 13.7554L46.6579 17.7957L45.8459 17.3291C45.6308 17.2047 45.3747 17.171 45.1351 17.2357C44.8949 17.3008 44.6908 17.4585 44.5673 17.6745C44.3144 18.1206 44.4685 18.6874 44.9127 18.9435L45.7247 19.41L37.7927 33.1557L35.833 38.3911L34.8998 40.1358C34.3535 41.0863 34.4118 42.2678 35.0492 43.1595L32.9496 45.7349L32.3618 44.2608C32.0966 43.6038 31.4829 43.1536 30.777 43.0985C30.0708 43.0429 29.3941 43.3919 29.0301 43.9993L28.6943 44.5684L28.3771 40.8357C28.3042 39.9526 27.6203 39.2427 26.7409 39.1361C25.861 39.03 25.0281 39.5571 24.747 40.3974L22.4514 47.2841C22.291 47.7712 22.5535 48.2961 23.0392 48.4601C23.1303 48.5025 23.2283 48.528 23.3285 48.5344C23.7295 48.5358 24.0867 48.2801 24.2152 47.9001L26.5012 41.0134L26.8279 44.8017C26.8954 45.61 27.4763 46.2821 28.2664 46.4653C29.0565 46.6484 29.8739 46.3003 30.29 45.6045L30.6353 45.035L31.214 46.5004C31.4596 47.1178 32.0151 47.5584 32.6726 47.6563C33.3301 47.7543 33.9898 47.495 34.4054 46.9761L36.5798 44.2235C36.8203 44.2863 37.0682 44.3178 37.317 44.3169C38.3172 44.3246 39.2458 43.7979 39.7525 42.9353L40.6856 41.377L44.2411 37.0565L52.2569 23.1427L53.0689 23.6093C53.2853 23.7333 53.443 23.9379 53.5072 24.1789C53.5719 24.4181 53.5382 24.6733 53.4143 24.8879L49.6816 31.355C49.5408 31.5673 49.4929 31.8279 49.5494 32.0767C49.6059 32.325 49.7613 32.5396 49.98 32.6704C50.1951 32.7953 50.4512 32.829 50.6908 32.7643C50.931 32.6991 51.1351 32.5415 51.2586 32.3255L54.9913 25.8584C55.3635 25.2146 55.4642 24.4491 55.271 23.731C55.0778 23.0138 54.6081 22.4028 53.9647 22.0323L53.1527 21.5657L55.4856 17.525C55.7404 17.0817 55.5904 16.5157 55.1498 16.256L55.6164 15.4441C55.9987 14.7902 56.0999 14.0092 55.8962 13.2793ZM52.3781 13.5403C52.5016 13.3244 52.7066 13.1663 52.9477 13.102C53.1873 13.0428 53.4407 13.076 53.6567 13.1954C53.8731 13.3189 54.0308 13.5239 54.0955 13.7645C54.1547 14.0042 54.1214 14.2575 54.002 14.4735L53.5355 15.2855L51.9115 14.3523L52.3781 13.5403ZM39.6591 39.595L39.1925 39.3243L37.8114 38.5214L39.1364 34.9756L42.0758 36.6738L39.6591 39.595ZM36.8595 42.2915C36.4654 42.0167 36.3442 41.4882 36.5798 41.069L37.0464 40.2575L38.6698 41.1906L38.2033 41.9931C38.0725 42.22 37.8529 42.3813 37.5972 42.4382C37.3416 42.4947 37.0741 42.4419 36.8595 42.2915ZM43.1398 35.1437L39.911 33.2773L47.3764 20.3432L50.6052 22.2096L43.1398 35.1437ZM51.5383 20.5952L48.3096 18.7288L50.1759 15.5001L53.4047 17.3665L51.5383 20.5952Z" fill="#26948A"/>
<path d="M14.7251 41.825L11.422 45.1193L9.44361 43.1409C9.07954 42.7791 8.49175 42.7791 8.12769 43.1409C7.95089 43.3163 7.85156 43.5546 7.85156 43.8034C7.85156 44.0522 7.95089 44.2909 8.12769 44.4659L10.1061 46.4443C10.4561 46.7916 10.929 46.9861 11.422 46.9857C11.9178 46.9884 12.3949 46.7938 12.7471 46.4443L16.041 43.1409C16.3581 42.7704 16.3367 42.2186 15.9922 41.8742C15.6473 41.5292 15.0955 41.5078 14.7251 41.825Z" fill="#26948A"/>
<path d="M3.73242 44.3351C3.73242 48.7161 7.28377 52.267 11.6644 52.267C16.045 52.267 19.5964 48.7161 19.5964 44.3351C19.5964 43.8197 19.1786 43.4019 18.6632 43.4019C18.1479 43.4019 17.73 43.8197 17.73 44.3351C17.73 47.685 15.0144 50.4007 11.6644 50.4007C8.31445 50.4007 5.59877 47.685 5.59877 44.3351C5.59877 40.9851 8.31445 38.2694 11.6644 38.2694C12.9776 38.2658 14.2557 38.6918 15.3037 39.4828C15.7161 39.7922 16.3011 39.7084 16.61 39.296C16.9194 38.8836 16.8361 38.299 16.4237 37.9896C14.0201 36.1871 10.8041 35.8973 8.11716 37.2406C5.42972 38.5843 3.73242 41.3309 3.73242 44.3351Z" fill="#26948A"/>
<path d="M33.5942 7.47475C34.1095 7.47475 34.5273 7.05737 34.5273 6.54157C34.5273 6.02623 34.1095 5.6084 33.5942 5.6084H9.33161C8.81627 5.6084 8.39844 6.02623 8.39844 6.54157V10.2743C8.39844 10.7901 8.81627 11.2074 9.33161 11.2074H33.5942C34.1095 11.2074 34.5273 10.7901 34.5273 10.2743C34.5273 9.75893 34.1095 9.3411 33.5942 9.3411H10.2648V7.47475H33.5942Z" fill="#26948A"/>
<path d="M12.1304 13.0737C11.6151 13.0737 11.1973 13.4916 11.1973 14.0069C11.1973 14.5227 11.6151 14.9401 12.1304 14.9401H30.7939C31.3093 14.9401 31.7271 14.5227 31.7271 14.0069C31.7271 13.4916 31.3093 13.0737 30.7939 13.0737H12.1304Z" fill="#26948A"/>
<path d="M36.3947 19.606H15.8648C15.3495 19.606 14.9316 20.0238 14.9316 20.5391C14.9316 21.0549 15.3495 21.4723 15.8648 21.4723H36.3947C36.91 21.4723 37.3278 21.0549 37.3278 20.5391C37.3278 20.0238 36.91 19.606 36.3947 19.606Z" fill="#26948A"/>
<path d="M27.0611 26.1383C27.0611 25.6229 26.6433 25.2051 26.1279 25.2051H7.46442C6.94908 25.2051 6.53125 25.6229 6.53125 26.1383C6.53125 26.6541 6.94908 27.0714 7.46442 27.0714H26.1279C26.6433 27.0714 27.0611 26.6541 27.0611 26.1383Z" fill="#26948A"/>
<path d="M36.3931 25.2051H29.8609C29.3456 25.2051 28.9277 25.6229 28.9277 26.1383C28.9277 26.6541 29.3456 27.0714 29.8609 27.0714H36.3931C36.9085 27.0714 37.3263 26.6541 37.3263 26.1383C37.3263 25.6229 36.9085 25.2051 36.3931 25.2051Z" fill="#26948A"/>
<path d="M16.7962 31.7372C17.3115 31.7372 17.7293 31.3198 17.7293 30.804C17.7293 30.2887 17.3115 29.8708 16.7962 29.8708H7.46442C6.94908 29.8708 6.53125 30.2887 6.53125 30.804C6.53125 31.3198 6.94908 31.7372 7.46442 31.7372H16.7962Z" fill="#26948A"/>
<path d="M20.5289 31.7372H27.0611C27.5764 31.7372 27.9943 31.3198 27.9943 30.804C27.9943 30.2887 27.5764 29.8708 27.0611 29.8708H20.5289C20.0135 29.8708 19.5957 30.2887 19.5957 30.804C19.5957 31.3198 20.0135 31.7372 20.5289 31.7372Z" fill="#26948A"/>
<path d="M41.9928 42.9353C41.4775 42.9353 41.0597 43.3531 41.0597 43.8685V53.2002C41.0597 53.716 40.6418 54.1334 40.1265 54.1334H2.79952C2.28418 54.1334 1.86635 53.716 1.86635 53.2002V2.8088C1.86635 2.29346 2.28418 1.87563 2.79952 1.87563H40.1265C40.6418 1.87563 41.0597 2.29346 41.0597 2.8088V20.3341C41.0597 20.8494 41.4775 21.2672 41.9928 21.2672C42.5082 21.2672 42.926 20.8494 42.926 20.3341V2.8088C42.926 1.26277 41.6725 0.00927734 40.1265 0.00927734H2.79952C1.2535 0.00927734 0 1.26277 0 2.8088V53.2002C0 54.7467 1.2535 55.9997 2.79952 55.9997H40.1265C41.6725 55.9997 42.926 54.7467 42.926 53.2002V43.8685C42.926 43.3531 42.5082 42.9353 41.9928 42.9353Z" fill="#26948A"/>
</g>
<defs>
<clipPath id="clip0_266_710">
<rect width="56" height="56" fill="white"/>
</clipPath>
</defs>
</svg>
