<svg width="56" height="56" viewBox="0 0 56 56" fill="none" xmlns="http://www.w3.org/2000/svg">
<path d="M53.4297 5.37474H47.9041V4.78411C47.9041 3.96992 47.2417 3.30755 46.4275 3.30755H44.5255V2.36255C44.5255 1.30719 43.6668 0.448486 42.6114 0.448486H13.3886C12.3332 0.448486 11.4745 1.30719 11.4745 2.36255V5.37474H8.54766C8.09463 5.37474 7.72734 5.74191 7.72734 6.19505C7.72734 6.64819 8.09463 7.01536 8.54766 7.01536H11.4745V20.7496H10.0388C9.22458 20.7496 8.5622 21.412 8.5622 22.2261V32.4613C8.5622 33.2755 9.22458 33.9379 10.0388 33.9379H11.4745V36.6467H1.64062V7.94505C1.64062 7.43241 2.05767 7.01536 2.57031 7.01536H4.71953C5.17256 7.01536 5.53984 6.64819 5.53984 6.19505C5.53984 5.74191 5.17256 5.37474 4.71953 5.37474H2.57031C1.15303 5.37474 0 6.52777 0 7.94505V42.6213C0 44.0386 1.15303 45.1916 2.57031 45.1916H21.6388V48.9013H18.4037C17.3483 48.9013 16.4896 49.76 16.4896 50.8153V53.6375C16.4896 54.6929 17.3483 55.5516 18.4037 55.5516H37.5963C38.6517 55.5516 39.5104 54.6929 39.5104 53.6375V50.8152C39.5104 49.7599 38.6517 48.9012 37.5963 48.9012H34.3613V45.1916H46.4188C46.8718 45.1916 47.2391 44.8244 47.2391 44.3713C47.2391 43.9182 46.8718 43.551 46.4188 43.551H2.57031C2.05767 43.551 1.64062 43.1339 1.64062 42.6213V38.2873H22.622V40.2462C22.622 40.9398 23.1863 41.504 23.8798 41.504H32.1202C32.8137 41.504 33.378 40.9398 33.378 40.2462V38.2873H54.3594V42.6213C54.3594 43.1339 53.9423 43.551 53.4297 43.551H50.2469C49.7938 43.551 49.4266 43.9182 49.4266 44.3713C49.4266 44.8244 49.7938 45.1916 50.2469 45.1916H53.4297C54.847 45.1916 56 44.0386 56 42.6213V7.94505C56 6.52777 54.847 5.37474 53.4297 5.37474ZM37.8698 50.8153V53.6375C37.8698 53.7884 37.7471 53.911 37.5963 53.911H18.4037C18.2529 53.911 18.1302 53.7884 18.1302 53.6375V50.8152C18.1302 50.6644 18.2529 50.5418 18.4037 50.5418H37.5963C37.7471 50.5419 37.8698 50.6645 37.8698 50.8153ZM32.7206 48.9013H23.2794V45.1916H32.7206V48.9013ZM46.2634 4.94806V10.633L44.5255 11.9693V4.94806H46.2634ZM10.2028 22.3902H36.3851V32.2973H10.2028V22.3902ZM22.3416 19.4454C22.102 19.0142 21.9123 18.5572 21.7768 18.0838C21.648 17.6408 21.2378 17.3315 20.7791 17.3315H19.2084V15.2807H20.7791C21.2393 15.2807 21.6498 14.9704 21.7775 14.5257C21.9126 14.0543 22.1024 13.5972 22.3391 13.1713C22.5691 12.7635 22.4976 12.2498 22.1695 11.927L21.0581 10.8156L22.5088 9.36485L23.616 10.472C23.9415 10.8025 24.4537 10.8749 24.8621 10.6478C25.2933 10.4076 25.75 10.2176 26.2149 10.0848C26.6619 9.95974 26.9742 9.5486 26.9742 9.08463V7.5151H29.026V9.08474C29.026 9.5486 29.3382 9.95985 29.7804 10.0834C30.2501 10.2179 30.7068 10.4077 31.1385 10.6483C31.5464 10.875 32.0586 10.8026 32.3799 10.4764L33.4914 9.36495L34.9421 10.8157L33.8352 11.9227C33.5027 12.2499 33.4312 12.7636 33.6587 13.167C33.8978 13.5973 34.0876 14.0544 34.2228 14.5264C34.3504 14.9706 34.761 15.2808 35.2212 15.2808H36.7918V17.3316H35.2212C34.7624 17.3316 34.3522 17.6409 34.2225 18.0872C34.088 18.5573 33.8983 19.0143 33.659 19.445C33.4336 19.8495 33.5042 20.3601 33.8306 20.6866L33.8937 20.7497H22.1064L22.1695 20.6866C22.4959 20.36 22.5666 19.8494 22.3416 19.4454ZM13.1152 33.9379H36.5491C37.3633 33.9379 38.0256 33.2755 38.0256 32.4613V22.2261C38.0256 21.412 37.3633 20.7496 36.5491 20.7496H36.2137L35.3024 19.8383C35.4393 19.556 35.5595 19.2663 35.662 18.9721H37.393C37.9659 18.9721 38.4321 18.506 38.4321 17.9331V14.6792C38.4321 14.1063 37.9659 13.6401 37.393 13.6401H35.6617C35.5591 13.3459 35.4391 13.0569 35.3025 12.7749L36.5273 11.5503C36.7233 11.354 36.8314 11.0931 36.8314 10.8156C36.8314 10.5378 36.7232 10.2767 36.5271 10.0807L34.2258 7.77945C34.0296 7.58324 33.7687 7.47528 33.4911 7.47528C33.2132 7.47528 32.9523 7.58335 32.7563 7.77945L31.5318 9.00391C31.2506 8.86741 30.9617 8.7472 30.6665 8.64417V6.91353C30.6665 6.34063 30.2003 5.87447 29.6274 5.87447H26.3724C25.7995 5.87447 25.3333 6.34063 25.3333 6.91353V8.64406C25.0388 8.74677 24.7497 8.86708 24.468 9.00391L23.2437 7.77967C23.0475 7.58335 22.7864 7.47528 22.5087 7.47528C22.231 7.47528 21.9702 7.58324 21.7739 7.77945L19.4728 10.0806C19.2766 10.2767 19.1684 10.5378 19.1684 10.8156C19.1684 11.0931 19.2764 11.354 19.4727 11.5505L20.6971 12.7748C20.5609 13.0563 20.4409 13.3454 20.3381 13.6401H18.6069C18.034 13.6401 17.5678 14.1063 17.5678 14.6792V17.9331C17.5678 18.506 18.034 18.9721 18.6069 18.9721H20.338C20.4407 19.2668 20.5609 19.5562 20.6975 19.8383L19.7862 20.7496H13.1152V2.36255C13.1152 2.21172 13.2379 2.08911 13.3886 2.08911H42.6114C42.7621 2.08911 42.8848 2.21172 42.8848 2.36255V36.6467H13.1152V33.9379ZM31.7373 39.8634H24.2627V38.2873H31.7373V39.8634ZM44.5255 36.6467V14.0388L47.3279 11.8843C47.6887 11.6069 47.9042 11.1695 47.9042 10.7144V7.01536H53.4298C53.9424 7.01536 54.3595 7.43241 54.3595 7.94505V36.6467H44.5255Z" fill="#26948A"/>
<path d="M27.9992 19.7078C29.8748 19.7078 31.4008 18.1819 31.4008 16.3062C31.4008 14.4308 29.8749 12.9048 27.9992 12.9048C26.1235 12.9048 24.5977 14.4307 24.5977 16.3062C24.5977 18.1818 26.1237 19.7078 27.9992 19.7078ZM27.9992 14.5454C28.9701 14.5454 29.7602 15.3353 29.7602 16.3062C29.7602 17.2772 28.9703 18.0672 27.9992 18.0672C27.0282 18.0672 26.2383 17.2772 26.2383 16.3062C26.2383 15.3353 27.0283 14.5454 27.9992 14.5454Z" fill="#26948A"/>
<path d="M24.6297 24.2067C24.6268 24.1994 24.6239 24.1918 24.6209 24.1845C24.4734 23.8255 24.1274 23.5938 23.7394 23.5938C23.7391 23.5938 23.7388 23.5938 23.7385 23.5938C23.3501 23.5941 23.0041 23.8266 22.8571 24.186C22.8546 24.1923 22.8521 24.1984 22.8498 24.2047L20.6496 29.9817C20.4884 30.405 20.7009 30.8789 21.1242 31.0402C21.2203 31.0769 21.319 31.0941 21.416 31.0941C21.7465 31.0941 22.0582 30.8928 22.1827 30.5655L22.5295 29.6551H24.9321L25.2749 30.5633C25.4348 30.9871 25.908 31.201 26.332 31.0411C26.7558 30.8812 26.9699 30.4079 26.8098 29.984L24.6297 24.2067ZM23.1543 28.0145L23.7363 26.4864L24.3129 28.0145H23.1543Z" fill="#26948A"/>
<path d="M30.4522 23.6804H28.8418C28.6239 23.6804 28.4151 23.767 28.2612 23.9213C28.1073 24.0754 28.021 24.2844 28.0215 24.5023C28.0215 24.5023 28.0256 26.6891 28.0256 27.3375C28.0256 28.1282 28.033 30.1897 28.033 30.1897C28.0337 30.4073 28.1209 30.6157 28.2753 30.769C28.429 30.9216 28.6368 31.0071 28.8533 31.0071H28.8563C28.905 31.0069 30.0541 31.0025 30.5137 30.9945C32.2839 30.9636 33.5688 29.4282 33.5688 27.3437C33.5688 25.1526 32.3163 23.6804 30.4522 23.6804ZM30.4851 29.3541C30.2957 29.3574 29.9769 29.3602 29.6709 29.3622C29.6687 28.698 29.6663 27.7999 29.6663 27.3375C29.6663 26.9499 29.6647 26.013 29.6636 25.3209H30.4522C31.8217 25.3209 31.9282 26.8691 31.9282 27.3436C31.9282 28.3318 31.4819 29.3367 30.4851 29.3541Z" fill="#26948A"/>
<path d="M19.1421 28.8177C18.7947 28.5266 18.2774 28.5722 17.9865 28.9195C17.9384 28.9769 17.8863 29.0307 17.8317 29.0792C17.5531 29.3275 17.1957 29.4533 16.7694 29.4533C15.6064 29.4533 14.66 28.507 14.66 27.3438C14.66 26.1806 15.6064 25.2344 16.7694 25.2344C17.1923 25.2344 17.5998 25.3588 17.9482 25.5941C18.3237 25.8479 18.8336 25.7491 19.0872 25.3737C19.3409 24.9983 19.2422 24.4883 18.8668 24.2348C18.2462 23.8153 17.521 23.5938 16.7696 23.5938C14.7018 23.5938 13.0195 25.276 13.0195 27.3438C13.0195 29.4116 14.7018 31.0939 16.7696 31.0939C17.5985 31.0939 18.3432 30.8209 18.9229 30.3043C19.0368 30.203 19.1447 30.0917 19.2439 29.9734C19.5349 29.6261 19.4894 29.1088 19.1421 28.8177Z" fill="#26948A"/>
</svg>
