<svg width="56" height="56" viewBox="0 0 56 56" fill="none" xmlns="http://www.w3.org/2000/svg">
<g clip-path="url(#clip0_266_765)">
<path d="M49.875 10.5H45.5V6.125C45.5 5.89294 45.4078 5.67038 45.2437 5.50628C45.0796 5.34219 44.8571 5.25 44.625 5.25H40.25V0.875C40.25 0.642936 40.1578 0.420376 39.9937 0.256282C39.8296 0.0921872 39.6071 0 39.375 0L6.125 0C5.89294 0 5.67038 0.0921872 5.50628 0.256282C5.34219 0.420376 5.25 0.642936 5.25 0.875V44.625C5.25 44.8571 5.34219 45.0796 5.50628 45.2437C5.67038 45.4078 5.89294 45.5 6.125 45.5H10.5V49.875C10.5 50.1071 10.5922 50.3296 10.7563 50.4937C10.9204 50.6578 11.1429 50.75 11.375 50.75H15.75V55.125C15.75 55.3571 15.8422 55.5796 16.0063 55.7437C16.1704 55.9078 16.3929 56 16.625 56H49.875C50.1071 56 50.3296 55.9078 50.4937 55.7437C50.6578 55.5796 50.75 55.3571 50.75 55.125V11.375C50.75 11.1429 50.6578 10.9204 50.4937 10.7563C50.3296 10.5922 50.1071 10.5 49.875 10.5ZM7 1.75H38.5V43.75H7V1.75ZM12.25 45.5H39.375C39.6071 45.5 39.8296 45.4078 39.9937 45.2437C40.1578 45.0796 40.25 44.8571 40.25 44.625V7H43.75V49H12.25V45.5ZM49 54.25H17.5V50.75H44.625C44.8571 50.75 45.0796 50.6578 45.2437 50.4937C45.4078 50.3296 45.5 50.1071 45.5 49.875V12.25H49V54.25Z" fill="#26948A"/>
<path d="M14.5197 19.1749L22.3947 22.6749C22.5066 22.7245 22.6276 22.7502 22.75 22.7502C22.8724 22.7502 22.9934 22.7245 23.1053 22.6749L30.9802 19.1749C31.135 19.1061 31.2664 18.994 31.3587 18.852C31.4509 18.7101 31.5 18.5444 31.5 18.3751V8.75011C31.495 8.58198 31.4438 8.41846 31.3522 8.27742C31.2605 8.13638 31.1318 8.02324 30.9802 7.95036L23.1053 4.45036C22.9934 4.40067 22.8724 4.375 22.75 4.375C22.6276 4.375 22.5066 4.40067 22.3947 4.45036L14.5197 7.95036C14.3682 8.02324 14.2395 8.13638 14.1478 8.27742C14.0562 8.41846 14.005 8.58198 14 8.75011V18.3751C14 18.5444 14.0491 18.7101 14.1413 18.852C14.2336 18.994 14.365 19.1061 14.5197 19.1749ZM15.75 10.0967L21.875 12.8189V20.5285L15.75 17.8072V10.0967ZM23.625 20.5285V12.8189L29.75 10.0967V17.8072L23.625 20.5285ZM22.75 6.21261L28.4707 8.75011L22.75 11.292L17.0292 8.75011L22.75 6.21261Z" fill="#26948A"/>
<path d="M10.5 27.125H35C35.2321 27.125 35.4546 27.0328 35.6187 26.8687C35.7828 26.7046 35.875 26.4821 35.875 26.25C35.875 26.0179 35.7828 25.7954 35.6187 25.6313C35.4546 25.4672 35.2321 25.375 35 25.375H10.5C10.2679 25.375 10.0454 25.4672 9.88128 25.6313C9.71719 25.7954 9.625 26.0179 9.625 26.25C9.625 26.4821 9.71719 26.7046 9.88128 26.8687C10.0454 27.0328 10.2679 27.125 10.5 27.125Z" fill="#26948A"/>
<path d="M10.5 30.625H35C35.2321 30.625 35.4546 30.5328 35.6187 30.3687C35.7828 30.2046 35.875 29.9821 35.875 29.75C35.875 29.5179 35.7828 29.2954 35.6187 29.1313C35.4546 28.9672 35.2321 28.875 35 28.875H10.5C10.2679 28.875 10.0454 28.9672 9.88128 29.1313C9.71719 29.2954 9.625 29.5179 9.625 29.75C9.625 29.9821 9.71719 30.2046 9.88128 30.3687C10.0454 30.5328 10.2679 30.625 10.5 30.625Z" fill="#26948A"/>
<path d="M10.5 34.125H35C35.2321 34.125 35.4546 34.0328 35.6187 33.8687C35.7828 33.7046 35.875 33.4821 35.875 33.25C35.875 33.0179 35.7828 32.7954 35.6187 32.6313C35.4546 32.4672 35.2321 32.375 35 32.375H10.5C10.2679 32.375 10.0454 32.4672 9.88128 32.6313C9.71719 32.7954 9.625 33.0179 9.625 33.25C9.625 33.4821 9.71719 33.7046 9.88128 33.8687C10.0454 34.0328 10.2679 34.125 10.5 34.125Z" fill="#26948A"/>
<path d="M10.5 37.625H35C35.2321 37.625 35.4546 37.5328 35.6187 37.3687C35.7828 37.2046 35.875 36.9821 35.875 36.75C35.875 36.5179 35.7828 36.2954 35.6187 36.1313C35.4546 35.9672 35.2321 35.875 35 35.875H10.5C10.2679 35.875 10.0454 35.9672 9.88128 36.1313C9.71719 36.2954 9.625 36.5179 9.625 36.75C9.625 36.9821 9.71719 37.2046 9.88128 37.3687C10.0454 37.5328 10.2679 37.625 10.5 37.625Z" fill="#26948A"/>
<path d="M35.875 40.25C35.875 40.0179 35.7828 39.7954 35.6187 39.6313C35.4546 39.4672 35.2321 39.375 35 39.375H10.5C10.2679 39.375 10.0454 39.4672 9.88128 39.6313C9.71719 39.7954 9.625 40.0179 9.625 40.25C9.625 40.4821 9.71719 40.7046 9.88128 40.8687C10.0454 41.0328 10.2679 41.125 10.5 41.125H35C35.2321 41.125 35.4546 41.0328 35.6187 40.8687C35.7828 40.7046 35.875 40.4821 35.875 40.25Z" fill="#26948A"/>
</g>
<defs>
<clipPath id="clip0_266_765">
<rect width="56" height="56" fill="white"/>
</clipPath>
</defs>
</svg>
