<svg width="56" height="56" viewBox="0 0 56 56" fill="none" xmlns="http://www.w3.org/2000/svg">
<path d="M41.5254 18.6303C40.9214 18.6303 40.4316 18.1405 40.4316 17.5366V10.0576C40.4316 9.45365 40.9214 8.96387 41.5254 8.96387C42.1294 8.96387 42.6191 9.45365 42.6191 10.0576V17.5366C42.6191 18.1405 42.1295 18.6303 41.5254 18.6303Z" fill="white"/>
<path d="M41.5215 7.63208C42.1255 7.63208 42.6152 7.14239 42.6152 6.53833C42.6152 5.93427 42.1255 5.44458 41.5215 5.44458C40.9174 5.44458 40.4277 5.93427 40.4277 6.53833C40.4277 7.14239 40.9174 7.63208 41.5215 7.63208Z" fill="white"/>
<path d="M53.0089 11.4906C53.0089 5.15462 47.8553 0 41.5205 0C38.8985 0 36.4789 0.883094 34.5432 2.36753H6.97267C4.77784 2.36753 2.99219 4.15308 2.99219 6.34802V46.1357C2.99219 48.3305 4.77784 50.1163 6.97267 50.1163H10.4433V52.0194C10.4433 54.2142 12.2289 56 14.4237 56H43.021C45.2159 56 47.0015 54.2143 47.0015 52.0194V36.8489C47.0015 36.2449 46.5117 35.7551 45.9078 35.7551C45.3038 35.7551 44.814 36.2449 44.814 36.8489V52.0194C44.814 53.008 44.0097 53.8125 43.021 53.8125H14.4237C13.4351 53.8125 12.6308 53.0082 12.6308 52.0194V50.1163H35.5701C37.7649 50.1163 39.5507 48.3306 39.5507 46.1357V22.8121C40.191 22.9233 40.8491 22.9812 41.5206 22.9812C42.6648 22.9812 43.7705 22.813 44.8141 22.5001V26.9602C44.8141 27.5641 45.3039 28.0539 45.9079 28.0539C46.5119 28.0539 47.0016 27.5641 47.0016 26.9602V21.5871C50.5773 19.6374 53.0089 15.8427 53.0089 11.4906ZM37.3632 46.1358C37.3632 47.1244 36.5588 47.9289 35.5701 47.9289H6.97267C5.98403 47.9289 5.17969 47.1245 5.17969 46.1358V6.34802C5.17969 5.35938 5.98403 4.55503 6.97267 4.55503H32.3664C30.9935 6.36333 30.1432 8.58911 30.0424 11.0053H11.4168C10.8128 11.0053 10.323 11.4951 10.323 12.0991V16.7184C10.323 17.3224 10.8128 17.8122 11.4168 17.8122H31.126C31.3746 17.8122 31.6038 17.7291 31.7876 17.5894C33.0942 19.6679 35.0476 21.3006 37.3632 22.2027V46.1358ZM30.0322 13.1928V15.6247H12.5105V13.1928H30.0322ZM41.5205 20.7936C36.392 20.7936 32.2197 16.6203 32.2197 11.4905C32.2197 6.36081 36.392 2.18739 41.5205 2.18739C46.6491 2.18739 50.8214 6.3607 50.8214 11.4905C50.8214 16.6203 46.6491 20.7936 41.5205 20.7936Z" fill="white"/>
<path d="M45.9077 32.9787C45.4571 32.9787 45.044 32.6903 44.8852 32.2697C44.7221 31.8381 44.8557 31.3306 45.2143 31.0387C45.5736 30.7463 46.0908 30.7112 46.4849 30.9558C46.8782 31.1999 47.0796 31.6815 46.9732 32.1331C46.858 32.6216 46.4103 32.9787 45.9077 32.9787Z" fill="white"/>
<path d="M31.1252 23.8037H11.416C10.812 23.8037 10.3223 23.314 10.3223 22.71C10.3223 22.106 10.812 21.6162 11.416 21.6162H31.1252C31.7291 21.6162 32.2189 22.106 32.2189 22.71C32.2189 23.3139 31.7293 23.8037 31.1252 23.8037Z" fill="white"/>
<path d="M31.1252 28.9915H11.416C10.812 28.9915 10.3223 28.5017 10.3223 27.8977C10.3223 27.2936 10.812 26.804 11.416 26.804H31.1252C31.7291 26.804 32.2189 27.2936 32.2189 27.8977C32.2189 28.5017 31.7293 28.9915 31.1252 28.9915Z" fill="white"/>
<path d="M31.1252 34.179H11.416C10.812 34.179 10.3223 33.6892 10.3223 33.0852C10.3223 32.4812 10.812 31.9915 11.416 31.9915H31.1252C31.7291 31.9915 32.2189 32.4812 32.2189 33.0852C32.2189 33.6893 31.7293 34.179 31.1252 34.179Z" fill="white"/>
<path d="M31.1252 39.3667H11.416C10.812 39.3667 10.3223 38.8769 10.3223 38.2729C10.3223 37.6689 10.812 37.1792 11.416 37.1792H31.1252C31.7291 37.1792 32.2189 37.6689 32.2189 38.2729C32.2189 38.8769 31.7293 39.3667 31.1252 39.3667Z" fill="white"/>
</svg>
