<svg width="56" height="56" viewBox="0 0 56 56" fill="none" xmlns="http://www.w3.org/2000/svg">
<g clip-path="url(#clip0_266_750)">
<path d="M33.4692 35.2894C34.1623 35.2894 34.8106 35.0162 35.2946 34.5201L39.5942 30.1119C40.5755 29.1056 40.5551 27.4886 39.5488 26.5072C38.5424 25.526 36.9251 25.5464 35.9438 26.5525L33.4215 29.1383L32.9796 28.7087C31.9719 27.7292 30.3547 27.7516 29.3746 28.7592C28.3948 29.7669 28.4174 31.3839 29.4252 32.3638L31.6921 34.5679C32.1706 35.0332 32.8018 35.2894 33.4692 35.2894ZM30.5534 29.9053C30.9016 29.5472 31.4762 29.5397 31.8337 29.8874L32.8639 30.8892C33.189 31.2054 33.7087 31.1983 34.0255 30.8738L37.1208 27.7004C37.4695 27.3429 38.0438 27.336 38.401 27.6842C38.7584 28.0328 38.7656 28.607 38.4172 28.9643L34.1176 33.3724C33.7853 33.7278 33.18 33.7353 32.8382 33.3895L30.5713 31.1854C30.2136 30.8374 30.2054 30.263 30.5534 29.9053Z" fill="#26948A"/>
<path d="M27.1161 35.8492C26.8426 35.4868 26.3274 35.4146 25.9647 35.688C25.6022 35.9615 25.5302 36.4769 25.8036 36.8392C26.1029 37.2359 26.4341 37.6163 26.7876 37.9698C28.8087 39.9908 31.496 41.1036 34.3543 41.1036C37.2126 41.1036 39.8997 39.9908 41.9208 37.9698C43.9421 35.949 45.0551 33.2621 45.0551 30.4043C45.0551 27.5463 43.942 24.8595 41.9208 22.8387C37.7485 18.667 30.9599 18.6671 26.7876 22.8387C23.9431 25.6828 22.9365 29.8317 24.1607 33.6664C24.2988 34.0988 24.7616 34.3373 25.1938 34.1995C25.6263 34.0614 25.865 33.5989 25.7269 33.1665C24.6906 29.9205 25.5425 26.4085 27.9503 24.0011C31.4813 20.4704 37.2272 20.4704 40.7583 24.0011C42.4689 25.7115 43.4111 27.9855 43.4111 30.4044C43.4111 32.8232 42.4689 35.0972 40.7583 36.8076C39.0478 38.5179 36.7734 39.46 34.3543 39.46C31.9352 39.46 29.6608 38.518 27.9501 36.8076C27.6502 36.5075 27.3696 36.1852 27.1161 35.8492Z" fill="#26948A"/>
<path d="M54.8692 45.4203L49.6832 40.2349C49.3621 39.914 48.8417 39.9139 48.5206 40.2349L48.4888 40.2666L46.4931 38.2712C47.8347 36.2029 48.634 33.8132 48.7913 31.3191C48.8198 30.8661 48.4756 30.4757 48.0226 30.447C47.5699 30.4195 47.1792 30.7627 47.1504 31.2156C46.9541 34.3294 45.6294 37.2607 43.4205 39.4693C40.9241 41.9654 37.6458 43.2149 34.3665 43.2181C34.3624 43.218 34.3583 43.2175 34.3541 43.2175H34.2888C31.0272 43.201 27.7707 41.952 25.2876 39.4693C22.8659 37.0479 21.5321 33.8285 21.5321 30.4041C21.5321 26.9796 22.8659 23.7602 25.2876 21.3388C30.2868 16.3402 38.4213 16.3402 43.4205 21.3388C45.2825 23.2006 46.5112 25.549 46.974 28.1304C47.0542 28.5772 47.4816 28.874 47.9282 28.7944C48.3751 28.7143 48.6724 28.2872 48.5923 27.8403C48.0699 24.9269 46.6836 22.2767 44.5831 20.1764C43.5422 19.1357 42.3807 18.2877 41.1433 17.6311V11.0067C41.1427 10.7904 41.0553 10.5786 40.9026 10.4255L30.7165 0.240734C30.5632 0.0882656 30.3516 0.000546875 30.135 0H2.46619C1.10644 0 0.000109375 1.10611 0.000109375 2.46575V9.3742C0.000109375 9.82811 0.368047 10.1962 0.822173 10.1962C1.27619 10.1962 1.64424 9.82822 1.64424 9.3742V2.46575C1.64424 2.0125 2.01294 1.6438 2.4663 1.6438H29.3133V9.36294C29.3133 10.7226 30.4196 11.8287 31.7794 11.8287H39.4995V16.8867C37.8956 16.279 36.2047 15.9669 34.511 15.9486C34.5029 15.9475 34.4951 15.9459 34.4866 15.9459H16.1335C15.6795 15.9459 15.3114 16.3139 15.3114 16.7678C15.3114 17.2218 15.6795 17.5898 16.1335 17.5898H27.6426C26.47 18.203 25.3646 18.9878 24.3636 19.9441H16.1335C15.6795 19.9441 15.3114 20.3121 15.3114 20.766C15.3114 21.22 15.6795 21.588 16.1335 21.588H22.8841C21.5423 23.3261 20.6253 25.3279 20.1864 27.4647H16.1336C15.6796 27.4647 15.3115 27.8328 15.3115 28.2867C15.3115 28.7406 15.6796 29.1086 16.1336 29.1086H19.9463C19.9085 29.537 19.8884 29.9691 19.8884 30.4043C19.8884 30.7613 19.9015 31.1163 19.9269 31.4688H16.1337C15.6797 31.4688 15.3116 31.8369 15.3116 32.2908C15.3116 32.7447 15.6797 33.1127 16.1337 33.1127H20.1412C20.5604 35.3375 21.4952 37.4222 22.8866 39.2235H16.1337C15.6797 39.2235 15.3116 39.5915 15.3116 40.0455C15.3116 40.4995 15.6797 40.8674 16.1337 40.8674H24.3669C25.3665 41.8219 26.4701 42.6055 27.6406 43.2179H16.1333C15.6793 43.2179 15.3112 43.5859 15.3112 44.0398C15.3112 44.4937 15.6793 44.8618 16.1333 44.8618H34.3541C36.0999 44.8616 37.8459 44.548 39.4993 43.9216V53.5347C39.4993 53.9878 39.1306 54.3566 38.6772 54.3566H2.46619C2.01294 54.3566 1.64413 53.9879 1.64413 53.5347V12.6623C1.64413 12.2084 1.27608 11.8404 0.822064 11.8404C0.368047 11.8404 0 12.2083 0 12.6623V53.5347C0.000109375 54.8939 1.10644 56 2.46619 56H38.6773C40.0371 56 41.1434 54.8939 41.1434 53.5342V43.1768C41.5103 42.9821 41.8703 42.7703 42.2226 42.542L44.218 44.537C43.8727 44.8384 43.8542 45.4128 44.1861 45.7311L49.3723 50.9166C50.819 52.4243 53.4225 52.4242 54.8691 50.9166C56.3772 49.47 56.3771 46.8667 54.8692 45.4203ZM31.7793 10.1849C31.326 10.1849 30.9572 9.81619 30.9572 9.36294V2.80623L38.3369 10.1849H31.7793ZM43.5636 41.5579C43.9143 41.268 44.2549 40.9597 44.5831 40.6317C44.9092 40.3056 45.2179 39.9651 45.5092 39.6123L47.3262 41.429L45.3804 43.3744L43.5636 41.5579ZM53.7067 49.7541C52.8719 50.6242 51.3697 50.624 50.5348 49.7541L45.9299 45.1499L49.1019 41.9783L53.7068 46.5826C54.5768 47.4175 54.5769 48.9194 53.7067 49.7541Z" fill="#26948A"/>
<path d="M7.45981 22.4004H11.0561C12.07 22.4004 12.8949 21.5757 12.8949 20.562V16.9662C12.8949 15.9524 12.0701 15.1277 11.0561 15.1277H7.45981C6.446 15.1277 5.62109 15.9524 5.62109 16.9662V20.562C5.62109 21.5757 6.446 22.4004 7.45981 22.4004ZM7.26523 16.9662C7.26523 16.8589 7.35262 16.7716 7.45981 16.7716H11.0561C11.1635 16.7716 11.2508 16.8589 11.2508 16.9662V20.562C11.2508 20.6693 11.1634 20.7566 11.0561 20.7566H7.45981C7.35251 20.7566 7.26523 20.6693 7.26523 20.562V16.9662Z" fill="#26948A"/>
<path d="M5.62109 32.0865C5.62109 33.1002 6.44589 33.9249 7.45981 33.9249H11.0561C12.07 33.9249 12.8949 33.1002 12.8949 32.0865V28.4907C12.8949 27.477 12.0701 26.6523 11.0561 26.6523H7.45981C6.446 26.6523 5.62109 27.477 5.62109 28.4907V32.0865ZM7.26523 28.4907C7.26523 28.3834 7.35262 28.2961 7.45981 28.2961H11.0561C11.1635 28.2961 11.2508 28.3834 11.2508 28.4907V32.0865C11.2508 32.1938 11.1634 32.2811 11.0561 32.2811H7.45981C7.35251 32.2811 7.26523 32.1938 7.26523 32.0865V28.4907Z" fill="#26948A"/>
<path d="M5.62109 43.8452C5.62109 44.8589 6.44589 45.6836 7.45981 45.6836H11.0561C12.07 45.6836 12.8949 44.8589 12.8949 43.8452V40.2494C12.8949 39.2356 12.0701 38.4109 11.0561 38.4109H7.45981C6.446 38.4109 5.62109 39.2356 5.62109 40.2494V43.8452ZM7.26523 40.2494C7.26523 40.1421 7.35262 40.0548 7.45981 40.0548H11.0561C11.1635 40.0548 11.2508 40.1421 11.2508 40.2494V43.8452C11.2508 43.9525 11.1634 44.0398 11.0561 44.0398H7.45981C7.35251 44.0398 7.26523 43.9525 7.26523 43.8452V40.2494Z" fill="#26948A"/>
</g>
<defs>
<clipPath id="clip0_266_750">
<rect width="56" height="56" fill="white"/>
</clipPath>
</defs>
</svg>
