<svg width="40" height="40" viewBox="0 0 40 40" fill="none" xmlns="http://www.w3.org/2000/svg">
<g clip-path="url(#clip0_326_1160)">
<path d="M39.8705 11.3467L33.1721 1.20931C33.0275 0.990405 32.7827 0.858765 32.5203 0.858765H9.48227C9.09157 0.858765 8.89477 1.13033 8.89423 1.13103L0.188604 11.2683C-0.0103017 11.4999 -0.056083 11.826 0.0713389 12.1034C0.198761 12.3807 0.476026 12.5585 0.78126 12.5585H1.02228V38.36C1.02228 38.7915 1.37204 39.1413 1.80353 39.1413H38.1965C38.6279 39.1413 38.9777 38.7915 38.9777 38.36V12.5585H39.2188C39.5063 12.5585 39.7706 12.4006 39.9068 12.1474C40.043 11.8942 40.0291 11.5866 39.8705 11.3467ZM37.7661 10.996H18.7595L11.2149 2.42126H32.1002L37.7661 10.996ZM9.49407 2.83087L16.6782 10.996H2.48196L9.49407 2.83087ZM7.04173 37.474V28.8061H11.6428V37.474H7.04173ZM17.4718 37.5788V34.3128C17.4718 33.8813 17.122 33.5316 16.6906 33.5316C16.2591 33.5316 15.9093 33.8813 15.9093 34.3128V37.5788H13.2053V28.0249C13.2053 27.5934 12.8556 27.2436 12.4241 27.2436H6.26048C5.82907 27.2436 5.47923 27.5934 5.47923 28.0249V37.5787H2.58478V12.5585H15.9093V27.2494C15.9093 27.6809 16.2591 28.0306 16.6906 28.0306C17.122 28.0306 17.4718 27.6809 17.4718 27.2494V25.2793H37.4152V37.5788H17.4718ZM24.9738 23.7168H21.3363V17.5328H24.9738V23.7168ZM33.5002 23.7168H29.8627V17.5328H33.5002V23.7168ZM37.4152 23.7168H35.0627V16.7516C35.0627 16.3201 34.7128 15.9703 34.2814 15.9703H29.0814C28.65 15.9703 28.3002 16.3201 28.3002 16.7516V23.7167H26.5363V16.7516C26.5363 16.3201 26.1865 15.9703 25.7551 15.9703H20.5551C20.1237 15.9703 19.7738 16.3201 19.7738 16.7516V23.7167H17.4717V12.5585L37.4152 12.5586V23.7168H37.4152Z" fill="#26948A"/>
<path d="M12.424 15.8506H6.2605C5.82909 15.8506 5.47925 16.2004 5.47925 16.6319V23.7373C5.47925 24.1688 5.82909 24.5185 6.2605 24.5185H12.4241C12.8556 24.5185 13.2053 24.1688 13.2053 23.7373V16.6319C13.2053 16.2004 12.8555 15.8506 12.424 15.8506ZM7.04175 17.4131H11.6428V19.4034H7.04175V17.4131ZM11.6428 22.956H7.04175V20.9658H11.6428V22.956H11.6428Z" fill="#26948A"/>
<path d="M16.6906 31.5766C16.3605 31.5766 16.0588 31.3602 15.9519 31.0482C15.846 30.7391 15.9481 30.3864 16.2052 30.1837C16.4584 29.9838 16.8152 29.9613 17.0922 30.1259C17.3717 30.292 17.5208 30.6291 17.4563 30.9477C17.3832 31.3083 17.0596 31.5766 16.6906 31.5766Z" fill="#26948A"/>
<path d="M34.2814 34.5216H29.0814C28.65 34.5216 28.3002 34.1719 28.3002 33.7404V28.0248C28.3002 27.5934 28.65 27.2436 29.0814 27.2436H34.2814C34.7128 27.2436 35.0627 27.5934 35.0627 28.0248V33.7404C35.0627 34.1719 34.7128 34.5216 34.2814 34.5216ZM29.8627 32.9591H33.5002V28.8061H29.8627V32.9591Z" fill="#26948A"/>
<path d="M25.7551 34.5216H20.5551C20.1236 34.5216 19.7738 34.1719 19.7738 33.7404V28.0248C19.7738 27.5934 20.1236 27.2436 20.5551 27.2436H25.7551C26.1865 27.2436 26.5363 27.5934 26.5363 28.0248V33.7404C26.5363 34.1719 26.1865 34.5216 25.7551 34.5216ZM21.3363 32.9591H24.9738V28.8061H21.3363V32.9591Z" fill="#26948A"/>
</g>
<defs>
<clipPath id="clip0_326_1160">
<rect width="40" height="40" fill="white"/>
</clipPath>
</defs>
</svg>
