<svg width="40" height="40" viewBox="0 0 40 40" fill="none" xmlns="http://www.w3.org/2000/svg">
<path d="M5.625 25.625C5.25416 25.625 4.89165 25.735 4.58331 25.941C4.27496 26.147 4.03464 26.4399 3.89273 26.7825C3.75081 27.1251 3.71368 27.5021 3.78603 27.8658C3.85838 28.2295 4.03695 28.5636 4.29918 28.8258C4.5614 29.0881 4.89549 29.2666 5.25921 29.339C5.62292 29.4113 5.99992 29.3742 6.34253 29.2323C6.68514 29.0904 6.97798 28.85 7.18401 28.5417C7.39003 28.2334 7.5 27.8708 7.5 27.5C7.49944 27.0029 7.30172 26.5263 6.95021 26.1748C6.5987 25.8233 6.12211 25.6256 5.625 25.625ZM5.625 28.125C5.50139 28.125 5.38055 28.0883 5.27777 28.0197C5.17499 27.951 5.09488 27.8534 5.04758 27.7392C5.00027 27.625 4.98789 27.4993 5.01201 27.3781C5.03613 27.2568 5.09565 27.1455 5.18306 27.0581C5.27047 26.9707 5.38183 26.9111 5.50307 26.887C5.62431 26.8629 5.74997 26.8753 5.86418 26.9226C5.97838 26.9699 6.07599 27.05 6.14467 27.1528C6.21335 27.2556 6.25 27.3764 6.25 27.5C6.24981 27.6657 6.18391 27.8246 6.06674 27.9417C5.94957 28.0589 5.7907 28.1248 5.625 28.125Z" fill="#26948A"/>
<path d="M29.375 25.625C29.0042 25.625 28.6417 25.735 28.3333 25.941C28.025 26.147 27.7846 26.4399 27.6427 26.7825C27.5008 27.1251 27.4637 27.5021 27.536 27.8658C27.6084 28.2295 27.787 28.5636 28.0492 28.8258C28.3114 29.0881 28.6455 29.2666 29.0092 29.339C29.3729 29.4113 29.7499 29.3742 30.0925 29.2323C30.4351 29.0904 30.728 28.85 30.934 28.5417C31.14 28.2334 31.25 27.8708 31.25 27.5C31.2494 27.0029 31.0517 26.5263 30.7002 26.1748C30.3487 25.8233 29.8721 25.6256 29.375 25.625ZM29.375 28.125C29.2514 28.125 29.1306 28.0883 29.0278 28.0197C28.925 27.951 28.8449 27.8534 28.7976 27.7392C28.7503 27.625 28.7379 27.4993 28.762 27.3781C28.7861 27.2568 28.8457 27.1455 28.9331 27.0581C29.0205 26.9707 29.1318 26.9111 29.2531 26.887C29.3743 26.8629 29.5 26.8753 29.6142 26.9226C29.7284 26.9699 29.826 27.05 29.8947 27.1528C29.9634 27.2556 30 27.3764 30 27.5C29.9998 27.6657 29.9339 27.8246 29.8167 27.9417C29.6996 28.0589 29.5407 28.1248 29.375 28.125Z" fill="#26948A"/>
<path d="M33.75 27.5C33.75 26.9192 33.6343 26.3442 33.4098 25.8086C33.1852 25.2729 32.8563 24.7874 32.4421 24.3802C32.0279 23.973 31.5368 23.6524 30.9974 23.437C30.458 23.2216 29.8812 23.1157 29.3004 23.1256C26.9292 23.1653 25 25.1553 25 27.5617V29.6614C23.2879 29.1953 20.7908 28.75 17.5 28.75C14.2091 28.75 11.7121 29.1953 9.99998 29.6614V27.5C9.99998 26.9112 9.88112 26.3284 9.65051 25.7866C9.41991 25.2448 9.0823 24.7551 8.65793 24.3469C8.23356 23.9387 7.73115 23.6204 7.18081 23.411C6.63047 23.2016 6.04352 23.1054 5.45513 23.1283C4.35559 23.1746 3.31354 23.6322 2.53535 24.4104C1.75717 25.1886 1.2996 26.2306 1.25326 27.3302C1.21155 28.4107 1.57125 29.4684 2.26306 30.2995C2.95487 31.1306 3.9298 31.6762 4.99998 31.8312V34.375C5.00072 35.0378 5.26435 35.6733 5.73303 36.142C6.20171 36.6107 6.83716 36.8743 7.49998 36.875V38.75C7.49998 38.9158 7.56583 39.0748 7.68304 39.192C7.80025 39.3092 7.95922 39.375 8.12498 39.375H9.99998C10.116 39.375 10.2298 39.3427 10.3285 39.2817C10.4273 39.2207 10.5071 39.1334 10.559 39.0296L11.6362 36.875H23.3637L24.441 39.0296C24.4929 39.1334 24.5727 39.2207 24.6714 39.2817C24.7701 39.3427 24.8839 39.375 25 39.375H26.875C27.0407 39.375 27.1997 39.3092 27.3169 39.192C27.4341 39.0748 27.5 38.9158 27.5 38.75V36.875C28.1628 36.8743 28.7982 36.6107 29.2669 36.142C29.7356 35.6733 29.9992 35.0378 30 34.375V31.8305C31.0407 31.6789 31.9922 31.158 32.6806 30.3629C33.3691 29.5679 33.7487 28.5517 33.75 27.5ZM9.61373 38.125H8.74998V36.875H10.2387L9.61373 38.125ZM26.25 38.125H25.3862L24.7612 36.875H26.25V38.125ZM29.375 30.625C29.2092 30.625 29.0502 30.6909 28.933 30.8081C28.8158 30.9253 28.75 31.0843 28.75 31.25V34.375C28.7496 34.7064 28.6178 35.0241 28.3834 35.2585C28.1491 35.4928 27.8314 35.6246 27.5 35.625H7.49998C7.16858 35.6246 6.85086 35.4928 6.61653 35.2585C6.38219 35.0241 6.25037 34.7064 6.24998 34.375V31.25C6.24998 31.0843 6.18413 30.9253 6.06692 30.8081C5.94971 30.6909 5.79074 30.625 5.62498 30.625C5.20429 30.625 4.78794 30.5401 4.40087 30.3753C4.0138 30.2105 3.66399 29.9693 3.3724 29.6661C3.08081 29.3628 2.85344 29.0038 2.70394 28.6106C2.55443 28.2174 2.48585 27.798 2.50232 27.3777C2.53544 26.5926 2.86214 25.8487 3.41773 25.2931C3.97333 24.7375 4.71729 24.4108 5.50232 24.3777C5.92268 24.3612 6.34205 24.4297 6.73529 24.5792C7.12852 24.7286 7.48753 24.956 7.7908 25.2475C8.09406 25.5391 8.33533 25.8889 8.50015 26.2759C8.66497 26.663 8.74994 27.0793 8.74998 27.5V30.0469C7.76474 30.3906 7.24701 30.6752 7.19357 30.7053L7.80506 31.7955C7.83732 31.7775 11.1088 30 17.5 30C23.8911 30 27.1626 31.7775 27.1936 31.7948L27.8064 30.7053C27.7529 30.6752 27.2352 30.3903 26.25 30.0469V27.5617C26.25 25.8331 27.6278 24.4038 29.3213 24.3755C29.7339 24.3683 30.1439 24.443 30.5275 24.5951C30.9111 24.7473 31.2608 24.9739 31.5563 25.2619C31.8519 25.5499 32.0875 25.8936 32.2495 26.2731C32.4115 26.6526 32.4968 27.0605 32.5003 27.4732C32.5038 27.8858 32.4256 28.2951 32.2701 28.6774C32.1147 29.0597 31.885 29.4073 31.5944 29.7004C31.3039 29.9934 30.9581 30.226 30.5772 30.3847C30.1962 30.5434 29.7876 30.6251 29.375 30.625Z" fill="#26948A"/>
<path d="M6.25 18.75C6.25039 18.4186 6.38222 18.1009 6.61655 17.8666C6.85089 17.6322 7.1686 17.5004 7.5 17.5H27.5C27.8314 17.5004 28.1491 17.6322 28.3834 17.8666C28.6178 18.1009 28.7496 18.4186 28.75 18.75V21.875H30V18.75C29.9993 18.0872 29.7356 17.4517 29.2669 16.9831C28.7983 16.5144 28.1628 16.2507 27.5 16.25H7.5C6.83719 16.2507 6.20174 16.5144 5.73306 16.9831C5.26438 17.4517 5.00074 18.0872 5 18.75V21.875H6.25V18.75Z" fill="#26948A"/>
<path d="M13.75 20H15V21.25H13.75V20Z" fill="#26948A"/>
<path d="M16.875 23.125H18.125V24.375H16.875V23.125Z" fill="#26948A"/>
<path d="M10.625 23.125H11.875V24.375H10.625V23.125Z" fill="#26948A"/>
<path d="M13.75 26.25H15V27.5H13.75V26.25Z" fill="#26948A"/>
<path d="M20 20H21.25V21.25H20V20Z" fill="#26948A"/>
<path d="M23.125 23.125H24.375V24.375H23.125V23.125Z" fill="#26948A"/>
<path d="M20 26.25H21.25V27.5H20V26.25Z" fill="#26948A"/>
<path d="M36.25 0.625H18.75C18.0872 0.625744 17.4517 0.889376 16.9831 1.35806C16.5144 1.82673 16.2507 2.46219 16.25 3.125V3.75H17.5V3.125C17.5004 2.7936 17.6322 2.47589 17.8666 2.24155C18.1009 2.00722 18.4186 1.87539 18.75 1.875H26.875V15H28.125V1.875H36.25C36.5814 1.87539 36.8991 2.00722 37.1334 2.24155C37.3678 2.47589 37.4996 2.7936 37.5 3.125V34.375C37.4996 34.7064 37.3678 35.0241 37.1334 35.2584C36.8991 35.4928 36.5814 35.6246 36.25 35.625H30.625V36.875H32.1137L33.191 39.0295C33.2429 39.1333 33.3227 39.2206 33.4214 39.2817C33.5202 39.3427 33.6339 39.375 33.75 39.375H35.625C35.7908 39.375 35.9497 39.3092 36.0669 39.1919C36.1842 39.0747 36.25 38.9158 36.25 38.75V36.875C36.9128 36.8743 37.5483 36.6106 38.0169 36.1419C38.4856 35.6733 38.7493 35.0378 38.75 34.375V3.125C38.7493 2.46219 38.4856 1.82673 38.0169 1.35806C37.5483 0.889376 36.9128 0.625744 36.25 0.625ZM35 38.125H34.1362L33.5112 36.875H35V38.125Z" fill="#26948A"/>
<path d="M5.62498 13.75H11.25V15H12.5V13.75H18.125C18.2114 13.75 18.2969 13.7321 18.3761 13.6973C18.4553 13.6626 18.5264 13.6118 18.5849 13.5482C18.6434 13.4845 18.6881 13.4095 18.7162 13.3277C18.7442 13.2459 18.755 13.1592 18.7478 13.073L18.1228 5.57305C18.1098 5.41683 18.0385 5.27121 17.9231 5.16506C17.8078 5.05892 17.6567 5.00001 17.5 5H12.5V3.75H11.25V5H6.24997C6.09321 5.00001 5.94218 5.05892 5.82682 5.16506C5.71145 5.27121 5.64019 5.41683 5.62716 5.57305L5.00216 13.073C4.99498 13.1592 5.00574 13.2459 5.03378 13.3277C5.06182 13.4095 5.10651 13.4845 5.16505 13.5482C5.22358 13.6118 5.29468 13.6626 5.37384 13.6973C5.45301 13.7321 5.53852 13.75 5.62498 13.75ZM6.82505 6.25H16.9249L17.4458 12.5H6.30419L6.82505 6.25Z" fill="#26948A"/>
</svg>
