<svg width="24" height="24" viewBox="0 0 24 24" fill="none" xmlns="http://www.w3.org/2000/svg">
<path d="M12 24C18.6274 24 24 18.6274 24 12C24 5.37258 18.6274 0 12 0C5.37258 0 0 5.37258 0 12C0 18.6274 5.37258 24 12 24Z" fill="#0084FF"/>
<path d="M19.5 11.7179C19.5 15.5539 16.1414 18.6629 12 18.6629C11.2729 18.6634 10.5491 18.5657 9.84818 18.3725L7.29409 19.7729V17.1248C5.59091 15.8525 4.5 13.9093 4.5 11.7179C4.5 7.88204 7.85863 4.77295 12 4.77295C16.1414 4.77295 19.5 7.8834 19.5 11.7179Z" fill="white"/>
<path d="M16.845 9.77344L12.7446 14.1234L10.8355 12.0875L7.10864 14.1248L11.2091 9.77344L13.1659 11.8093L16.845 9.77344Z" fill="#2196F3"/>
</svg>
