<svg width="24" height="24" viewBox="0 0 24 24" fill="none" xmlns="http://www.w3.org/2000/svg">
<path d="M12 24C18.6274 24 24 18.6274 24 12C24 5.37258 18.6274 0 12 0C5.37258 0 0 5.37258 0 12C0 18.6274 5.37258 24 12 24Z" fill="#50ABF1"/>
<path d="M19.4713 7.46022C19.1153 7.99205 18.6819 8.46775 18.1854 8.87158C18.121 8.9228 18.069 8.98793 18.0334 9.06208C17.9977 9.13623 17.9793 9.21749 17.9795 9.29976V9.35022C17.9738 10.4219 17.7771 11.484 17.3986 12.4866C17.0087 13.5374 16.4296 14.508 15.69 15.3502C14.7005 16.4781 13.426 17.3193 12 17.7857C11.0603 18.0906 10.0779 18.2435 9.08996 18.2384C7.52539 18.2368 5.98902 17.8219 4.63633 17.0357C4.58789 17.0081 4.5498 16.9655 4.52788 16.9143C4.50597 16.8631 4.50143 16.8061 4.51496 16.752C4.52868 16.6986 4.5599 16.6513 4.60365 16.6177C4.6474 16.5841 4.70115 16.5661 4.75633 16.5666H5.12996C6.31918 16.5664 7.4812 16.2107 8.46678 15.5452C7.87927 15.4492 7.32953 15.1933 6.87782 14.8055C6.4261 14.4178 6.08983 13.9132 5.90587 13.347C5.89684 13.3191 5.89523 13.2893 5.9012 13.2606C5.90717 13.2319 5.9205 13.2052 5.9399 13.1832C5.95929 13.1612 5.98408 13.1446 6.01183 13.1351C6.03957 13.1256 6.06932 13.1234 6.09814 13.1289C6.27795 13.163 6.46056 13.1804 6.6436 13.1807H6.71178C6.14233 12.919 5.6609 12.498 5.32573 11.9685C4.99055 11.439 4.81598 10.8237 4.82314 10.197C4.82353 10.1676 4.83152 10.1388 4.84632 10.1134C4.86113 10.088 4.88226 10.0669 4.90765 10.0521C4.93304 10.0373 4.96183 10.0293 4.99123 10.0289C5.02062 10.0284 5.04963 10.0356 5.07542 10.0498C5.30646 10.1788 5.55427 10.2752 5.81178 10.3361C5.30185 9.832 4.97365 9.17288 4.87864 8.46214C4.78363 7.75141 4.92718 7.02923 5.28678 6.40886C5.30057 6.386 5.31959 6.36673 5.34226 6.35263C5.36494 6.33853 5.39063 6.33 5.41723 6.32774C5.44384 6.32547 5.4706 6.32955 5.49533 6.33962C5.52006 6.34969 5.54205 6.36547 5.55951 6.38568C6.27369 7.26853 7.15797 7.99891 8.15984 8.53347C9.16172 9.06802 10.2608 9.39585 11.3918 9.49749H11.404C11.4208 9.49694 11.4373 9.49304 11.4525 9.48601C11.4677 9.47899 11.4814 9.46898 11.4927 9.45658C11.5035 9.44418 11.5117 9.42965 11.5166 9.41392C11.5216 9.39819 11.5232 9.3816 11.5213 9.36522C11.4791 8.96921 11.5049 8.56889 11.5977 8.18158C11.679 7.84252 11.8173 7.51974 12.0068 7.22704C12.4044 6.60253 13.0101 6.13881 13.7168 5.91795C14.0482 5.81403 14.3935 5.7607 14.7409 5.75977C15.5286 5.75899 16.2895 6.04608 16.8804 6.56704C16.9557 6.63395 17.0524 6.67168 17.1531 6.6734C17.1863 6.67285 17.2193 6.66827 17.2513 6.65977C17.8068 6.51923 18.3391 6.29923 18.8318 6.00658C18.8614 5.98945 18.8956 5.98165 18.9297 5.9842C18.9639 5.98675 18.9965 5.99952 19.0233 6.02086C19.05 6.04221 19.0698 6.07112 19.0799 6.10384C19.09 6.13657 19.09 6.17158 19.08 6.20431C18.9147 6.72042 18.622 7.18658 18.229 7.55977C18.5835 7.47511 18.9295 7.35826 19.2627 7.21068C19.2963 7.19571 19.3338 7.1921 19.3697 7.2004C19.4055 7.2087 19.4376 7.22846 19.4612 7.25667C19.4848 7.28489 19.4986 7.32002 19.5004 7.35675C19.5022 7.39349 19.492 7.42981 19.4713 7.46022Z" fill="white"/>
</svg>
