<svg width="24" height="24" viewBox="0 0 24 24" fill="none" xmlns="http://www.w3.org/2000/svg">
<rect width="24" height="24" rx="12" fill="white"/>
<path fill-rule="evenodd" clip-rule="evenodd" d="M18 12.453C18 13.4242 17.88 14.3955 17.88 14.3955C17.88 14.3955 17.763 15.222 17.403 15.5865C16.947 16.0642 16.4355 16.0665 16.2008 16.0942C14.5215 16.2157 12 16.2195 12 16.2195C12 16.2195 8.88 16.191 7.92 16.0995C7.653 16.0492 7.053 16.0642 6.597 15.5865C6.237 15.222 6.12 14.3955 6.12 14.3955C6.12 14.3955 6 13.4242 6 12.453V11.5425C6 10.5712 6.12 9.60075 6.12 9.60075C6.12 9.60075 6.237 8.7735 6.597 8.409C7.053 7.93125 7.5645 7.929 7.79925 7.90125C9.4785 7.77975 11.9977 7.77975 11.9977 7.77975H12.0023C12.0023 7.77975 14.5215 7.77975 16.2008 7.90125C16.4355 7.929 16.947 7.93125 17.403 8.409C17.763 8.7735 17.88 9.60075 17.88 9.60075C17.88 9.60075 18 10.5712 18 11.5425V12.453ZM12 0C5.37225 0 0 5.37225 0 12C0 18.627 5.37225 24 12 24C18.6278 24 24 18.627 24 12C24 5.37225 18.6278 0 12 0Z" fill="#EA412C"/>
<path fill-rule="evenodd" clip-rule="evenodd" d="M10.7611 13.5561L14.0034 11.8761L10.7604 10.1841L10.7611 13.5561Z" fill="#EA412C"/>
</svg>
